<svg id="Layer_1" data-name="Layer 1" xmlns="http://www.w3.org/2000/svg" xmlns:xlink="http://www.w3.org/1999/xlink" viewBox="0 0 674.93 418.89"><defs><linearGradient id="linear-gradient" x1="344.41" y1="478.93" x2="338.94" y2="113.5" gradientUnits="userSpaceOnUse"><stop offset="0" stop-color="#010101" stop-opacity="0"/><stop offset="0.95" stop-color="#010101"/></linearGradient><linearGradient id="linear-gradient-2" x1="326.78" y1="497.96" x2="363.98" y2="108.46" gradientUnits="userSpaceOnUse"><stop offset="0" stop-color="#fff" stop-opacity="0"/><stop offset="0.95" stop-color="#fff"/></linearGradient><linearGradient id="linear-gradient-3" x1="443.95" y1="217.6" x2="474.59" y2="828.1" xlink:href="#linear-gradient"/><linearGradient id="linear-gradient-4" x1="468.18" y1="194.71" x2="485.68" y2="436.5" xlink:href="#linear-gradient"/><linearGradient id="linear-gradient-5" x1="335.56" y1="211.44" x2="357.44" y2="550.61" xlink:href="#linear-gradient"/><linearGradient id="linear-gradient-6" x1="337.29" y1="211.33" x2="359.17" y2="550.5" xlink:href="#linear-gradient"/><linearGradient id="linear-gradient-7" x1="341.97" y1="211.03" x2="363.85" y2="550.19" xlink:href="#linear-gradient"/><linearGradient id="linear-gradient-8" x1="310.03" y1="220.49" x2="261.89" y2="709.55" xlink:href="#linear-gradient"/><linearGradient id="linear-gradient-9" x1="498.63" y1="239.06" x2="450.49" y2="728.12" xlink:href="#linear-gradient"/><linearGradient id="linear-gradient-10" x1="437.51" y1="321.97" x2="436.78" y2="138.89" xlink:href="#linear-gradient-2"/><linearGradient id="linear-gradient-11" x1="341.08" y1="249.41" x2="470.2" y2="249.41" xlink:href="#linear-gradient"/><linearGradient id="linear-gradient-12" x1="401.14" y1="255.42" x2="581.61" y2="255.42" xlink:href="#linear-gradient"/><linearGradient id="linear-gradient-13" x1="291.21" y1="291.26" x2="365.24" y2="291.26" xlink:href="#linear-gradient-2"/><linearGradient id="linear-gradient-14" x1="336.44" y1="321.72" x2="386.77" y2="273.04" xlink:href="#linear-gradient"/><linearGradient id="linear-gradient-15" x1="566.73" y1="282.66" x2="622.53" y2="282.66" xlink:href="#linear-gradient"/><linearGradient id="linear-gradient-16" x1="363.73" y1="171.93" x2="371.9" y2="379.01" xlink:href="#linear-gradient"/><linearGradient id="linear-gradient-17" x1="590.47" y1="166.96" x2="598.34" y2="366.37" xlink:href="#linear-gradient"/><linearGradient id="linear-gradient-18" x1="85.23" y1="154.02" x2="269.35" y2="154.02" xlink:href="#linear-gradient-2"/><linearGradient id="linear-gradient-19" x1="531.97" y1="105.05" x2="497.36" y2="257.78" xlink:href="#linear-gradient-2"/></defs><title>on the road 1</title><path d="M677.16,322.39c0,.43-.08.9-.15,1.32-.35,2.3-.74,4.59-1.13,6.88-7.19,38.82-25.76,76.9-58.76,98.16C578,454,527.48,450.82,481.63,443s-93-19.51-138.15-8.35c-31.2,7.69-59.14,25.88-90.53,32.56-68.86,14.65-136.13-27.94-190.22-72.94C46.1,380.37,29.55,365.8,18.05,347.46a92.8,92.8,0,0,1-8.4-16.87A77.7,77.7,0,0,1,7,322.39c-3.34-12.12-3.88-24.87-.39-36.91,4.82-16.52,16-29.19,28.76-41.08,12.39-11.65,26.27-22.53,36.91-35.59a133.48,133.48,0,0,0,13-19.27c11.58-20.48,19.32-43.41,31.52-63.65q4-6.48,8.16-12.24C188,27.26,295.15,57.26,388.13,52.76c31.94-1.52,66.64-2.3,92.52,16.47,21.14,15.31,32.49,41.07,52.81,57.47a108,108,0,0,0,25.42,14.73c18,7.85,37.73,13,54.86,22.69,17.72,10,31.71,24.48,42,41.54a151.42,151.42,0,0,1,16.59,38.74A191.63,191.63,0,0,1,677.16,322.39Z" transform="translate(-4.2 -51.23)" fill="#ffc107" opacity="0.24" style="isolation:isolate"/><path d="M677.16,322.39c0,.43-.08.9-.15,1.32-6.18,41.12-25,82.54-59.89,105C578,454,527.48,450.82,481.63,443s-93-19.51-138.15-8.35c-31.2,7.69-59.14,25.88-90.53,32.56-68.86,14.65-136.13-27.94-190.22-72.94C46.1,380.37,29.55,365.8,18.05,347.46A92.23,92.23,0,0,1,7,322.39Z" transform="translate(-4.2 -51.23)" fill="#ffc107" opacity="0.24" style="isolation:isolate"/><path d="M677.16,322.39c0,.43-.08.9-.15,1.32-6.18,41.12-25,82.54-59.89,105C578,454,527.48,450.82,481.63,443s-93-19.51-138.15-8.35c-31.2,7.69-59.14,25.88-90.53,32.56-68.86,14.65-136.13-27.94-190.22-72.94C46.1,380.37,29.55,365.8,18.05,347.46A92.23,92.23,0,0,1,7,322.39Z" transform="translate(-4.2 -51.23)" fill="url(#linear-gradient)"/><path d="M675.88,330.59c-7.19,38.82-25.76,76.9-58.76,98.16C578,454,527.48,450.82,481.63,443s-93-19.51-138.15-8.35c-31.2,7.69-59.14,25.88-90.53,32.56-68.86,14.65-136.13-27.94-190.22-72.94C46.1,380.37,29.55,365.8,18.05,347.46a92.8,92.8,0,0,1-8.4-16.87Z" transform="translate(-4.2 -51.23)" fill="url(#linear-gradient-2)"/><path d="M565.69,359.44c26.64-.21,53.57,1,79.64-4.45.55-7.42-4.34-14.42-10.65-18.35s-13.85-5.33-21.22-6.28c-23.37-3-47-2.41-70.6-1.75q-81.75,2.26-163.49,5-40.87,1.36-81.74,2.85c-17,.61-26.93,4.36-38,12.19a7.78,7.78,0,0,0,2.44,13.92c45.2,11.8,97.77,8.74,143,6.33C458.61,366.07,512,359.85,565.69,359.44Z" transform="translate(-4.2 -51.23)" fill="url(#linear-gradient-3)"/><path d="M678.91,304c-.08,2.26-.23,4.51-.47,6.77-.27,3.92-.74,7.81-1.28,11.65H7a80.5,80.5,0,0,1-2.29-11.65A57,57,0,0,1,4.25,304,60.64,60.64,0,0,1,5.5,290a44.77,44.77,0,0,1,1.08-4.47c.24-.78.47-1.56.74-2.3a66.32,66.32,0,0,1,6.65-14,78,78,0,0,1,4.66-6.76,145.42,145.42,0,0,1,16.71-18h637a164.94,164.94,0,0,1,4,18c.43,2.25.78,4.5,1.09,6.76.58,4.62,1,9.32,1.32,14,.16,2.26.24,4.51.28,6.77C679.18,294.61,679.14,299.31,678.91,304Z" transform="translate(-4.2 -51.23)" fill="#ffc107" opacity="0.24" style="isolation:isolate"/><path d="M389.89,347.94c4.79.81,9.41,2.4,14.18,3.28,6,1.11,12.2,1.06,18.32,1a1305.71,1305.71,0,0,0,134.33-9,25.78,25.78,0,0,0,8.69-2.08c2.68-1.34,4.8-3.56,7.21-5.34,7.45-5.5,17.31-6.6,26.55-5.88s18.29,3.05,27.53,3.64a6.52,6.52,0,0,0,3.82-.57c2.13-1.29,2.2-4.3,2-6.77-.82-9.44-2.47-19.69-9.49-26-7.46-6.75-18.55-7-28.6-6.86-8.24.11-16.55.23-24.59,2-8.53,1.92-16.52,5.7-24.91,8.15-16.84,4.9-34.73,4.29-52.26,3.64l-97.13-3.61c-13.43-.49-27.12-1-40.06,2.64s-32.93,15.76-31.73,31.74c1,13.73,3.36,19.07,12.72,18.33C347.83,355.3,378.53,346,389.89,347.94Z" transform="translate(-4.2 -51.23)" fill="#ffc107"/><path d="M389.89,347.94c4.79.81,9.41,2.4,14.18,3.28,6,1.11,12.2,1.06,18.32,1a1305.71,1305.71,0,0,0,134.33-9,25.78,25.78,0,0,0,8.69-2.08c2.68-1.34,4.8-3.56,7.21-5.34,7.45-5.5,17.31-6.6,26.55-5.88s18.29,3.05,27.53,3.64a6.52,6.52,0,0,0,3.82-.57c2.13-1.29,2.2-4.3,2-6.77-.82-9.44-2.47-19.69-9.49-26-7.46-6.75-18.55-7-28.6-6.86-8.24.11-16.55.23-24.59,2-8.53,1.92-16.52,5.7-24.91,8.15-16.84,4.9-34.73,4.29-52.26,3.64l-97.13-3.61c-13.43-.49-27.12-1-40.06,2.64s-32.93,15.76-31.73,31.74c1,13.73,3.36,19.07,12.72,18.33C347.83,355.3,378.53,346,389.89,347.94Z" transform="translate(-4.2 -51.23)" fill="url(#linear-gradient-4)"/><path d="M678.91,304c-.08,2.26-.23,4.51-.47,6.77H4.68A57,57,0,0,1,4.25,304Z" transform="translate(-4.2 -51.23)" fill="url(#linear-gradient-5)"/><path d="M679.07,290H5.5a44.77,44.77,0,0,1,1.08-4.47c.24-.78.47-1.56.74-2.3H678.79C679,285.44,679,287.69,679.07,290Z" transform="translate(-4.2 -51.23)" fill="url(#linear-gradient-6)"/><path d="M677.47,269.16H14a78,78,0,0,1,4.66-6.76H676.38C676.81,264.65,677.16,266.9,677.47,269.16Z" transform="translate(-4.2 -51.23)" fill="url(#linear-gradient-7)"/><path d="M336.45,356.2l-1.86.12c-25.14,1.82-62-5.48-67.07-8.05s-9.1-13.68-7-28.48c1.17,6.88,3.89,11.62,7,13.17,5.09,2.57,41.93,9.87,67.07,8.05h.15c-.11,1.12-.15,2.25-.15,3.42A38.07,38.07,0,0,0,336.45,356.2Z" transform="translate(-4.2 -51.23)" fill="#ffc107"/><path d="M567.43,344.23v0l-43.18,4.39s-61.31,2.18-114.82,4.28a38.47,38.47,0,0,0,1-8.51,35.91,35.91,0,0,0-.62-6.8c53.43-2.1,114.47-4.28,114.47-4.28l41.89-4.27a37.34,37.34,0,0,0-.31,4.66A34.61,34.61,0,0,0,567.43,344.23Z" transform="translate(-4.2 -51.23)" fill="#ffc107"/><path d="M336.45,356.2l-1.86.12c-25.14,1.82-62-5.48-67.07-8.05s-9.1-13.68-7-28.48c1.17,6.88,3.89,11.62,7,13.17,5.09,2.57,41.93,9.87,67.07,8.05h.15c-.11,1.12-.15,2.25-.15,3.42A38.07,38.07,0,0,0,336.45,356.2Z" transform="translate(-4.2 -51.23)" fill="url(#linear-gradient-8)"/><path d="M567.43,344.23v0l-43.18,4.39s-61.31,2.18-114.82,4.28a38.47,38.47,0,0,0,1-8.51,35.91,35.91,0,0,0-.62-6.8c53.43-2.1,114.47-4.28,114.47-4.28l41.89-4.27a37.34,37.34,0,0,0-.31,4.66A34.61,34.61,0,0,0,567.43,344.23Z" transform="translate(-4.2 -51.23)" fill="url(#linear-gradient-9)"/><path d="M631.46,334.32v-.58c0-18.65-14.68-33.85-32.79-33.85-15.58,0-28.64,11.23-32,26.23a24.14,24.14,0,0,0-.55,3l-41.89,4.27s-61,2.18-114.47,4.28c0-.32-.12-.59-.16-.86a37.92,37.92,0,0,0-74.26,0v0a37.56,37.56,0,0,0-.62,4.2h-.15c-25.14,1.82-62-5.48-67.07-8.05-3.11-1.55-5.83-6.29-7-13.17,0-.12,0-.2,0-.31,2.22-15,10.57-21.88,22.27-31,10.41-8.12,45-17.76,58.25-21.26l3.73-1c5.28-1.4,34.62-15.58,55.56-25.88a117,117,0,0,1,46.32-11.89c7-.31,15.08-.66,23.51-1,15.51-.62,32.33-1.2,46.4-1.4,37.46-.54,72.2,9.87,74.1,10.42s13.41,18.57,18.34,24.59,21.06,20.25,21.06,20.25,5,.54,8.32,20.59c0,.35.12.66.15,1A44.1,44.1,0,0,1,631.46,334.32Z" transform="translate(-4.2 -51.23)" fill="#ffc107"/><path d="M263.65,312.58c9,3.8,19,4.86,28.75,4.89A52,52,0,0,0,306.49,316a64.16,64.16,0,0,0,12.75-5.65q17.19-9.15,34.47-18.11c5-2.6,10.09-5.21,15.57-6.51,5.24-1.24,10.67-1.26,16.05-1.27l43.31-.07c41-.07,82.09-13.22,123-15.35a521.72,521.72,0,0,1,59.45.3,82.21,82.21,0,0,1-20.41-12.91c-1.73-1.49-3.49-3.22-3.93-5.46-.39-2,.37-4.1.3-6.16-.13-3.8-3.14-7-6.63-8.55s-7.4-1.7-11.2-1.84q-49.34-1.87-98.68-3.62c-13.11-.45-26.28-.88-39.3.74-43.27,5.4-80.37,32.6-121.43,47.29-9.64,3.46-19.59,6.25-28.65,11S267.39,303.05,263.65,312.58Z" transform="translate(-4.2 -51.23)" fill="url(#linear-gradient-10)"/><path d="M470.2,227.5c-.54.86-2.37,1.59-5.87,2.18-22.69,3.81-62.91,32.79-79,38.82s-43.76.54-43.76.54a16.9,16.9,0,0,1-.46-1.83l3.73-1c5.28-1.4,34.62-15.58,55.56-25.88a117,117,0,0,1,46.32-11.89C453.73,228.16,461.77,227.81,470.2,227.5Z" transform="translate(-4.2 -51.23)" fill="url(#linear-gradient-11)"/><path d="M402.24,273.22a2.91,2.91,0,0,0,2,5.17c30.39-2,126.83-8.5,136-10.34,10.94-2.19,35-4.37,39-12s1.55-16.23,1.55-16.23S508.33,227,472,235.14C443.48,241.5,415.66,262.41,402.24,273.22Z" transform="translate(-4.2 -51.23)" fill="url(#linear-gradient-12)"/><path d="M291.21,302.7s26.62-20.79,32.45-22.25,41.58-.36,41.58-.36-10.58,8-16.78,10.21S299.59,304.16,291.21,302.7Z" transform="translate(-4.2 -51.23)" fill="url(#linear-gradient-13)"/><circle cx="368.04" cy="291.15" r="29.62" fill="#606161"/><circle cx="368.04" cy="291.15" r="29.62" fill="url(#linear-gradient-14)"/><circle cx="368.39" cy="291.53" r="21.21" fill="#ffc107"/><circle cx="594.63" cy="282.66" r="27.9" fill="#606161"/><circle cx="594.63" cy="282.66" r="27.9" fill="url(#linear-gradient-15)"/><circle cx="594.95" cy="283.02" r="19.98" fill="#ffc107"/><circle cx="368.47" cy="292" r="17.61" fill="url(#linear-gradient-16)"/><circle cx="595.04" cy="282.92" r="15.97" fill="url(#linear-gradient-17)"/><path d="M269.34,149.4c.16,3-2,5.71-4.31,7.65-17,14.11-43,3.19-64.35,8.82-15.23,4-27.24,16.44-42.51,20.21-6.53,1.63-13.37,1.59-20,2.68-7.58,1.24-14.88,4-22.5,5.09a55.3,55.3,0,0,1-30.43-4.31c11.58-20.48,19.32-43.41,31.52-63.65q4-6.48,8.16-12.24c18.18-.39,38,10.84,53.74,16.36,25.61,9,54.21,3.92,80.47,10.8C263.75,142,269.07,144.62,269.34,149.4Z" transform="translate(-4.2 -51.23)" fill="url(#linear-gradient-18)"/><path d="M655.79,205.66c-47.76,2.18-95.86-5.36-143.85-5.17-44.46.2-90,6.88-132.63-5.86-5.94-1.79-13.05-6.14-11.5-12.17C388,177.65,405,164.2,424.43,156.74A101.57,101.57,0,0,1,480,151.88c11.12,2.22,22.31,6.26,33.5,4.47,9.25-1.48,17.33-6.84,25.84-10.68,5.36-2.45,12.16-3.7,19.55-4.24,18,7.85,37.73,13,54.86,22.69C631.46,174.15,645.45,188.6,655.79,205.66Z" transform="translate(-4.2 -51.23)" fill="url(#linear-gradient-19)"/></svg>